<?xml version="1.0" standalone="no"?>
<!DOCTYPE svg PUBLIC "-//W3C//DTD SVG 20010904//EN"
 "http://www.w3.org/TR/2001/REC-SVG-20010904/DTD/svg10.dtd">
<svg version="1.0" xmlns="http://www.w3.org/2000/svg"
 width="2160.000000pt" height="2160.000000pt" viewBox="0 0 2160.000000 2160.000000"
 preserveAspectRatio="xMidYMid meet">

<g transform="translate(0.000000,2160.000000) scale(0.100000,-0.100000)"
fill="#000000" stroke="none">
<path d="M16737 17040 c-83 -21 -140 -59 -366 -244 -109 -88 -123 -97 -140
-85 -367 270 -541 337 -778 299 -260 -42 -488 -185 -1526 -963 -448 -337 -467
-352 -450 -369 17 -17 25 -16 196 33 98 27 232 61 299 75 213 45 261 70 608
318 405 290 677 465 797 516 99 42 196 56 275 40 93 -18 191 -73 274 -155 85
-84 130 -147 269 -374 124 -204 149 -237 187 -257 28 -15 205 -54 312 -70 46
-6 49 -5 42 12 -4 11 -21 53 -36 94 -16 41 -40 105 -54 141 l-25 66 196 159
c215 175 259 219 300 303 38 76 39 191 3 266 -31 64 -111 144 -173 173 -55 26
-153 36 -210 22z"/>
<path d="M12667 16565 c-57 -22 -132 -80 -170 -133 -19 -26 -80 -125 -136
-219 -118 -200 -88 -184 -287 -153 -271 42 -430 37 -585 -20 -179 -65 -319
-190 -450 -400 -48 -79 -428 -843 -1064 -2144 -245 -501 -258 -529 -240 -542
10 -8 21 -14 24 -13 3 0 29 28 56 62 103 127 265 307 438 483 l177 182 279
558 c293 588 529 1049 614 1199 66 115 177 234 258 274 209 104 449 49 902
-207 249 -142 321 -144 500 -19 l59 41 -91 84 c-50 46 -91 88 -91 94 0 6 47
92 103 192 131 228 142 257 142 366 0 71 -4 94 -26 141 -32 68 -85 121 -158
157 -68 33 -191 41 -254 17z"/>
<path d="M18315 15915 c-93 -8 -480 -40 -860 -70 -379 -31 -691 -58 -693 -59
-1 -2 17 -6 40 -9 24 -3 147 -45 273 -92 264 -99 390 -138 497 -155 82 -12
217 -6 638 31 466 40 598 19 739 -116 144 -138 203 -378 205 -835 l1 -235 -39
-135 -40 -134 64 -121 c34 -66 64 -122 66 -124 2 -2 26 11 54 29 64 41 128
112 168 188 54 101 70 182 98 500 3 41 11 75 18 77 6 2 117 13 246 24 275 23
320 35 404 112 77 70 101 129 101 244 -1 79 -4 97 -30 149 -36 71 -98 128
-174 158 -47 19 -75 22 -181 22 -111 0 -390 -18 -461 -29 -25 -4 -30 3 -73 92
-57 118 -115 200 -193 274 -201 192 -437 250 -868 214z"/>
<path d="M15140 15873 c-1371 -36 -2787 -614 -4030 -1642 -417 -346 -944 -873
-1309 -1311 -280 -335 -727 -915 -968 -1255 -1066 -1504 -1755 -3120 -2123
-4983 -49 -250 -54 -257 -229 -333 -312 -134 -756 -262 -1126 -323 -309 -52
-426 -60 -810 -61 -440 0 -664 19 -945 81 -317 71 -532 178 -717 357 -195 189
-300 407 -350 732 -21 132 -23 476 -4 630 101 834 468 1508 1195 2194 514 485
1151 902 1918 1256 153 70 216 105 256 140 28 26 52 50 52 54 0 12 -103 41
-144 41 -42 0 -320 -68 -548 -134 -1134 -330 -2203 -949 -2846 -1649 -612
-665 -965 -1437 -1089 -2382 -24 -189 -24 -567 1 -739 73 -512 305 -985 656
-1337 304 -305 680 -500 1146 -594 484 -98 1220 -80 1874 46 1045 203 2042
681 3045 1463 1298 1011 2291 2375 2927 4021 359 928 542 1742 618 2744 l11
144 -32 65 -31 64 -24 -28 c-44 -52 -63 -101 -84 -211 -56 -288 -85 -424 -130
-608 -497 -2022 -1559 -3680 -3190 -4980 -190 -152 -395 -304 -526 -392 -104
-70 -675 -415 -680 -411 -6 7 78 314 141 518 295 948 723 1903 1210 2695 522
851 1204 1708 1995 2509 462 467 801 767 1240 1093 950 707 1851 1103 2770
1219 197 24 657 30 866 10 554 -53 1089 -207 1619 -466 298 -146 522 -294 739
-488 426 -382 690 -885 770 -1467 56 -411 45 -887 -30 -1295 -196 -1065 -833
-2024 -1849 -2783 -525 -393 -1251 -761 -1973 -1003 -108 -36 -204 -70 -214
-75 -20 -11 -58 -66 -58 -85 0 -16 74 -54 106 -54 42 0 333 55 534 101 1085
246 2110 734 2860 1360 792 661 1331 1507 1634 2565 92 323 152 634 181 944
22 222 16 689 -9 880 -94 695 -339 1294 -732 1787 -100 125 -331 356 -454 455
-189 150 -421 298 -640 408 -475 238 -1120 417 -1750 485 -128 14 -571 38
-610 33 -8 -1 -58 -3 -110 -5z m3092 -2037 c255 -49 510 -188 709 -386 146
-146 234 -276 293 -431 l25 -67 -49 -21 c-95 -41 -170 -55 -290 -55 -135 0
-226 22 -348 83 -159 81 -259 189 -363 391 -90 177 -149 233 -382 356 -67 36
-126 69 -131 74 -16 16 112 55 239 74 50 7 218 -3 297 -18z"/>
</g>
</svg>
