<?xml version="1.0" standalone="no"?>
<!DOCTYPE svg PUBLIC "-//W3C//DTD SVG 20010904//EN"
 "http://www.w3.org/TR/2001/REC-SVG-20010904/DTD/svg10.dtd">
<svg version="1.0" xmlns="http://www.w3.org/2000/svg"
 width="499.000000pt" height="500.000000pt" viewBox="0 0 499.000000 500.000000"
 preserveAspectRatio="xMidYMid meet">

<g transform="translate(0.000000,500.000000) scale(0.100000,-0.100000)"
fill="#000000" stroke="none">
<path d="M3672 3753 c-10 -10 -30 -28 -44 -41 l-26 -24 -48 26 c-79 42 -152
31 -239 -37 -69 -54 -187 -158 -211 -187 l-23 -27 55 13 c42 10 69 25 117 67
131 114 193 146 245 126 39 -15 89 -66 123 -126 22 -39 37 -53 60 -58 17 -4
33 -4 36 -1 3 3 -4 24 -16 47 l-22 42 50 51 c59 60 66 93 25 125 -33 26 -58
27 -82 4z"/>
<path d="M2852 3620 c-12 -12 -31 -39 -42 -60 -20 -39 -21 -40 -63 -33 -23 3
-46 6 -52 6 -56 0 -76 -7 -113 -38 -34 -30 -61 -76 -151 -258 -60 -122 -118
-242 -129 -267 -11 -25 -56 -88 -101 -140 -117 -139 -121 -144 -208 -275 -70
-105 -109 -170 -159 -265 -17 -34 -67 -151 -98 -233 -37 -97 -92 -316 -106
-427 l-12 -96 -77 -31 c-112 -46 -233 -67 -386 -67 -207 -1 -296 37 -352 152
-26 53 -28 65 -27 177 0 111 3 126 32 200 42 105 94 184 178 270 113 115 242
205 406 283 43 20 78 43 78 50 0 8 -7 11 -17 8 -217 -60 -317 -97 -406 -148
-26 -15 -51 -28 -56 -28 -18 0 -210 -151 -255 -201 -143 -158 -226 -369 -226
-571 0 -195 92 -342 265 -424 99 -47 164 -57 335 -51 190 8 356 51 545 143
144 70 230 127 364 243 380 328 597 768 627 1267 6 102 5 114 -10 114 -9 0
-16 -6 -16 -14 0 -23 -78 -265 -111 -346 -114 -275 -271 -511 -475 -715 -128
-127 -334 -286 -334 -256 0 11 62 171 96 249 61 139 160 321 243 447 31 49
164 227 183 246 8 8 21 24 29 36 45 65 221 247 336 348 353 309 707 389 1071
242 200 -80 320 -211 369 -400 25 -101 14 -276 -27 -402 -82 -255 -269 -458
-555 -602 -83 -42 -190 -87 -237 -98 -34 -9 -39 -38 -5 -30 12 3 63 14 113 25
327 71 633 268 787 508 125 195 196 478 169 676 -23 172 -83 296 -202 417
-157 159 -354 229 -645 229 -234 0 -413 -42 -608 -142 -116 -60 -258 -154
-328 -218 -38 -35 -59 -49 -59 -40 0 24 158 325 187 357 31 34 36 35 86 31 37
-3 71 -15 116 -42 58 -33 67 -36 93 -25 33 13 34 16 12 40 -15 17 -14 22 10
65 32 58 33 78 1 109 -29 30 -54 32 -83 5z m1240 -569 c49 -22 108 -80 133
-130 21 -41 11 -51 -54 -51 -63 0 -121 36 -150 95 -17 35 -34 52 -67 68 -24
11 -44 24 -44 28 0 25 121 18 182 -10z"/>
<path d="M3975 3549 c-27 -12 -83 -35 -124 -53 l-74 -31 40 -17 39 -17 103 39
c56 22 112 40 126 40 63 0 144 -127 145 -226 0 -33 -26 -64 -53 -64 -24 0 -28
-14 -11 -38 18 -26 35 -27 74 -7 55 28 74 111 45 187 -5 13 6 21 52 38 65 24
73 32 73 77 0 64 -42 77 -135 42 -50 -19 -58 -19 -68 -6 -45 57 -144 72 -232
36z"/>
</g>
</svg>
