<svg version="1.1" id="Layer_1" xmlns="http://www.w3.org/2000/svg" xmlns:xlink="http://www.w3.org/1999/xlink" x="0px" y="0px"
	 width="100%" viewBox="0 0 1024 1024" enable-background="new 0 0 1024 1024" xml:space="preserve">
<path fill="#000000" opacity="1.000000" stroke="none" 
	d="
M1025.000000,194.000000 
	C1025.000000,366.691559 1025.000000,539.383118 1024.750244,712.347107 
	C1022.818665,711.132751 1021.058594,711.897644 1019.319031,712.458191 
	C1016.132019,713.485168 1012.904175,714.186035 1009.524536,714.212952 
	C999.703186,714.291199 990.288452,716.432678 981.609863,720.954346 
	C969.041992,727.502686 956.774536,734.860901 942.105591,735.402222 
	C930.831116,735.818176 921.520813,741.651672 911.655518,745.871399 
	C906.185669,748.211121 900.980408,751.360474 896.040100,754.711304 
	C881.062561,764.869873 866.194763,775.195374 851.442017,785.677917 
	C844.042419,790.935669 835.456116,793.785828 827.534607,797.962769 
	C819.109375,802.405212 810.373718,806.800720 800.291687,807.026245 
	C784.627625,807.376587 768.982727,807.311829 753.330627,806.585144 
	C741.008362,806.013062 728.924805,803.093262 716.556519,803.042725 
	C703.661133,802.990051 690.970337,800.959534 678.453064,798.193909 
	C672.149658,796.801270 666.044983,793.814575 660.927856,789.940552 
	C654.486450,785.064087 648.435852,779.625793 648.230591,770.137329 
	C648.084717,763.395874 643.583374,759.707886 636.816650,759.226501 
	C624.703308,758.364990 613.005554,759.407166 601.764343,764.903748 
	C595.059021,768.182373 588.376831,771.843689 581.304382,774.134888 
	C556.988403,782.012390 535.866455,795.284973 516.169495,811.177551 
	C508.012756,817.758850 500.163757,824.802490 491.535553,830.700806 
	C476.198883,841.184937 462.411713,853.407593 449.328979,866.457214 
	C437.011261,878.743774 423.404236,889.174561 408.381836,897.962891 
	C401.083008,902.232727 393.140167,904.608215 385.430115,907.668213 
	C373.517090,912.396362 361.211060,916.815857 348.658813,918.420105 
	C325.516174,921.377869 302.822174,926.699646 279.719574,929.848022 
	C256.055542,933.072937 232.566757,936.246094 208.597153,934.308716 
	C200.173859,933.627930 191.688889,932.933350 183.153717,933.619202 
	C160.729294,935.420959 138.252396,935.659546 115.771156,935.086975 
	C97.121124,934.612000 78.472641,933.640198 59.817432,934.514221 
	C50.076725,934.970642 40.567913,934.709167 31.385885,930.750549 
	C28.075495,929.323303 24.271633,929.081055 20.751013,928.091492 
	C15.818739,926.705200 10.198131,927.851807 5.865518,924.503418 
	C3.122268,922.383301 2.136328,923.945557 1.000000,926.000000 
	C1.000000,769.308411 1.000000,612.616882 1.317369,455.542114 
	C11.150255,453.160400 21.035986,452.014740 28.545013,444.893524 
	C37.153236,436.729767 46.809116,433.299011 58.690815,436.535980 
	C68.410316,439.183868 78.045914,438.085419 87.712914,435.051239 
	C96.221931,432.380554 103.861549,427.973907 111.978958,424.559692 
	C128.724945,417.516327 146.020660,412.130554 163.437378,406.926544 
	C185.673630,400.282471 207.727127,400.294434 230.038300,405.321655 
	C240.112091,407.591522 250.312576,407.362335 259.513275,403.369446 
	C277.017273,395.772980 294.457611,387.851959 309.799988,376.078156 
	C314.067841,372.802887 318.451935,369.823608 321.199066,365.110901 
	C327.329987,354.593262 334.344727,344.718170 341.782928,335.076599 
	C358.246948,313.735504 376.526855,294.344635 399.374115,279.702271 
	C407.444977,274.529785 413.307495,266.655334 421.286774,261.603302 
	C427.405945,257.728973 431.502319,252.497482 434.742615,246.581024 
	C443.381317,230.807632 456.400452,221.361664 473.786896,217.281799 
	C487.078461,214.162827 500.236786,210.537506 512.255066,203.673447 
	C520.089294,199.199036 528.681274,196.426941 536.995850,193.010757 
	C548.993713,188.081192 560.749939,182.432098 571.331055,174.828140 
	C577.449707,170.431030 583.683472,166.321655 590.589478,163.389206 
	C612.534912,154.070816 635.904114,151.750626 659.196472,152.663574 
	C687.107971,153.757599 714.782410,151.062988 742.554016,150.187302 
	C760.181946,149.631485 777.971558,146.925415 795.415771,148.636002 
	C817.560486,150.807541 839.539551,155.095612 861.637573,158.189529 
	C869.768860,159.327972 877.811401,160.878616 885.929199,159.743118 
	C896.731506,158.232086 907.474060,158.601913 918.300720,159.004196 
	C933.700928,159.576401 947.808594,164.026978 960.715576,172.181931 
	C967.194275,176.275269 974.006531,178.967972 981.553162,180.017532 
	C986.692871,180.732330 991.811218,181.903580 996.342651,184.387985 
	C1005.353638,189.328369 1015.574463,190.435913 1025.000000,194.000000 
M347.163513,703.767761 
	C341.649963,707.060120 336.136414,710.352539 330.621643,713.645630 
	C329.164703,711.540894 329.884247,709.986633 330.295563,708.400146 
	C339.054779,674.616211 351.658264,642.252747 366.617462,610.787109 
	C379.796448,583.066040 395.506836,556.834534 413.196838,531.733521 
	C434.514008,501.485840 458.458252,473.426605 484.098663,446.864868 
	C508.761169,421.316162 535.583618,398.214966 565.396606,378.653656 
	C594.029053,359.867035 624.282227,345.182343 658.007263,338.010803 
	C679.849365,333.366150 701.819580,332.122833 723.879333,334.799713 
	C754.445618,338.508881 783.192871,348.204803 809.528564,364.212891 
	C837.282898,381.083344 856.452637,404.810303 863.867615,436.928894 
	C869.206909,460.056793 868.890259,483.504211 865.218140,506.786957 
	C860.774719,534.959656 849.967163,560.801575 833.598267,584.126526 
	C822.220215,600.339722 809.096680,615.025940 794.089050,628.151245 
	C775.662964,644.266296 755.456970,657.535706 733.745178,668.580383 
	C715.178833,678.025085 695.840515,685.687073 675.987793,692.010254 
	C673.417419,692.828918 670.754456,693.950928 671.389038,696.877136 
	C671.987244,699.636108 674.831055,699.949341 677.537537,699.749084 
	C686.026611,699.120789 694.326965,697.174500 702.494873,695.158569 
	C734.903320,687.159668 766.128418,675.937500 795.246887,659.307129 
	C821.598389,644.257019 845.343628,626.105591 865.124695,602.854126 
	C884.564697,580.003479 899.134338,554.507324 908.884521,526.183472 
	C919.061462,496.620239 925.881348,466.562134 923.731262,434.951630 
	C922.860474,422.148163 920.886475,409.625824 917.638611,397.224548 
	C911.596313,374.153381 901.225525,353.217560 885.791199,335.144043 
	C869.458374,316.018372 849.387024,301.665405 826.012268,292.068207 
	C799.032593,280.990936 770.979919,274.261261 741.915039,272.601013 
	C729.182434,271.873657 716.345520,272.182983 703.510620,273.218323 
	C682.996460,274.873108 663.058960,279.050690 643.594543,285.304047 
	C621.851501,292.289520 601.036865,301.606873 581.188171,312.981812 
	C551.132080,330.206512 523.970459,351.204071 499.478943,375.682007 
	C498.523560,376.636841 497.806488,378.069580 495.592499,377.936920 
	C501.520599,365.705322 507.050995,353.832123 512.983704,342.163483 
	C521.503357,325.406708 530.147156,308.707855 539.070374,292.163574 
	C544.022461,282.982086 551.616638,277.475983 562.642395,278.708252 
	C566.737000,279.165894 570.770752,280.051208 574.707764,281.578674 
	C583.453613,284.971771 591.155701,290.362183 599.677368,294.163422 
	C604.451538,296.293060 609.019958,296.271851 613.495728,293.544525 
	C618.262878,290.639648 618.816284,288.796692 614.490906,285.304749 
	C610.105591,281.764465 611.367493,278.959320 613.733887,275.237640 
	C617.020264,270.068909 620.593140,264.981689 622.134155,258.913239 
	C623.990479,251.603485 621.248352,244.842346 615.123840,241.291916 
	C607.723999,237.002151 602.399475,237.635910 596.009216,243.276535 
	C590.480408,248.156860 587.671997,254.819138 584.132935,260.987885 
	C582.687134,263.507965 580.944397,264.694427 578.100952,264.262665 
	C575.476624,263.864105 572.834106,263.562714 570.228821,263.065216 
	C548.833130,258.979431 531.563477,267.564880 521.998779,286.968933 
	C509.634949,312.051575 497.163940,337.081390 484.816040,362.171814 
	C477.767059,376.494904 470.857452,390.886688 463.923798,405.266205 
	C463.084076,407.007690 461.380981,408.989746 462.961792,410.803009 
	C464.912506,413.040558 463.556091,414.307343 462.316254,415.881531 
	C453.267090,427.370697 444.072632,438.749847 435.224945,450.392365 
	C415.278412,476.639526 396.892517,503.901764 381.246552,532.991577 
	C366.484222,560.438538 353.562073,588.677490 343.257965,618.085754 
	C332.468628,648.879028 323.784851,680.248474 318.166656,712.425354 
	C317.275421,717.529724 314.818298,721.293396 309.693146,723.207947 
	C302.215210,726.001221 294.889435,729.187134 287.213226,731.459534 
	C259.099945,739.782227 230.579224,743.881287 201.137650,741.600403 
	C188.840698,740.647766 176.655914,739.625244 164.770538,736.334961 
	C144.834839,730.816223 130.283676,718.992554 124.108841,698.847656 
	C118.481125,680.487732 119.495178,661.661499 123.358696,643.110291 
	C130.076141,610.855469 146.527573,584.105469 169.679840,560.834045 
	C187.908798,542.511292 208.066620,526.920532 230.106964,513.674866 
	C243.944016,505.359131 258.303040,497.973572 272.986084,491.213562 
	C275.657776,489.983551 280.471924,488.897217 278.708435,484.506653 
	C277.116394,480.542908 272.961182,482.270477 269.858765,483.018158 
	C256.610077,486.211029 243.555084,490.042999 230.696243,494.609680 
	C197.183151,506.511536 166.282425,523.053833 138.288208,545.099243 
	C123.682747,556.601013 111.107895,569.939758 100.063072,584.772705 
	C86.503296,602.983093 77.054222,623.224304 70.671379,644.988220 
	C66.541168,659.071228 63.516911,673.392090 62.511963,687.979492 
	C60.524490,716.828735 67.573647,743.320862 84.773193,766.878540 
	C96.291222,782.654358 111.349533,793.696411 129.453583,800.746582 
	C155.429306,810.862244 182.447693,810.714111 209.566757,808.424866 
	C227.110260,806.943970 244.337830,803.529846 261.347107,798.742188 
	C287.638062,791.341858 312.464935,780.543274 335.975555,766.893799 
	C358.296936,753.934692 379.074280,738.701233 398.599030,721.716370 
	C419.632660,703.418823 438.828766,683.457764 455.809143,661.370850 
	C477.293152,633.425842 495.379211,603.474731 509.947632,571.313965 
	C522.546021,543.502136 533.025330,514.949280 540.185120,485.340179 
	C545.364502,463.920776 548.594360,442.034760 550.467224,420.018768 
	C550.763000,416.542145 550.568420,413.023102 550.584961,409.523621 
	C550.595886,407.204926 550.092712,404.879120 547.480103,404.537567 
	C544.716248,404.176300 544.011719,406.606201 543.416504,408.734558 
	C543.014343,410.172729 542.646973,411.629669 542.401001,413.101074 
	C539.301697,431.641724 534.579102,449.804108 529.050537,467.731415 
	C523.661194,485.207367 517.093262,502.254913 509.571869,518.967590 
	C497.018677,546.861145 481.734619,573.119141 463.290253,597.467957 
	C445.485046,620.972839 425.599060,642.571411 403.251617,661.942871 
	C385.741028,677.121582 367.712067,691.493774 347.163513,703.767761 
M954.842834,326.427551 
	C961.633179,322.246155 964.777161,315.943359 963.352722,309.367554 
	C961.848999,302.425507 956.140503,296.848846 949.184143,296.534393 
	C943.242676,296.265839 937.260559,295.853088 931.281738,297.127594 
	C923.916931,298.697571 922.113220,297.615509 918.588806,291.160492 
	C912.873047,280.692108 904.256836,274.105560 892.693542,270.903778 
	C882.726074,268.143890 872.845947,270.099426 862.978516,270.657288 
	C847.587708,271.527374 832.236389,273.105652 816.871948,274.425598 
	C811.415222,274.894409 805.968872,275.485046 800.389709,276.032623 
	C801.051025,278.415588 802.416931,278.873169 803.613892,279.286438 
	C811.942871,282.162170 820.261047,285.082123 828.669067,287.711456 
	C833.593689,289.251465 838.695496,289.946320 843.922424,289.451569 
	C857.290771,288.186279 870.631104,286.249023 884.094910,286.651550 
	C892.244751,286.895172 899.353516,290.233368 902.859619,297.795471 
	C909.379578,311.857941 909.642212,326.986511 908.458679,342.121429 
	C908.164795,345.879822 906.807922,349.556610 905.922119,353.266724 
	C905.221375,356.202118 909.322998,367.023956 911.426331,366.860718 
	C915.817993,366.519806 918.816589,363.565826 921.039062,359.870636 
	C925.473145,352.498718 926.678711,344.348297 926.587036,335.952911 
	C926.550232,332.578735 927.462036,330.737061 931.199768,330.359802 
	C933.488708,330.128815 935.783813,329.801666 938.096741,329.582764 
	C943.519165,329.069397 949.045959,329.005341 954.842834,326.427551 
M792.899170,271.000122 
	C792.707886,270.362946 792.568481,269.704529 792.317566,269.091766 
	C789.117676,261.279327 789.356750,261.548676 795.485840,255.980988 
	C799.679321,252.171631 804.485229,249.121567 808.435852,245.083267 
	C814.815186,238.562546 815.784058,231.309799 811.432312,224.328415 
	C807.393127,217.848480 799.666748,214.931961 792.366211,217.713593 
	C787.868530,219.427338 784.205017,222.709595 780.480286,225.780991 
	C769.621338,234.735153 773.379761,234.144440 762.915710,227.144287 
	C755.974243,222.500610 748.940430,218.568359 740.091553,218.261307 
	C730.371338,217.924011 722.173767,221.447128 714.344910,226.343521 
	C689.652954,241.786575 666.899780,259.937439 643.581421,277.297577 
	C642.481201,278.116669 641.250488,278.947296 641.891846,280.495148 
	C642.561157,282.110565 644.139343,281.762024 645.387634,281.435547 
	C651.014709,279.963806 656.530518,277.726807 662.243286,277.001862 
	C670.877258,275.906219 677.852051,271.829498 684.653198,266.956085 
	C698.306519,257.172852 711.895325,247.282608 726.477722,238.888199 
	C734.833618,234.078079 748.270020,233.510117 756.189819,242.636871 
	C762.237854,249.606659 767.424133,257.157990 771.472412,265.298767 
	C775.612549,273.624420 782.895203,274.628571 790.524048,275.576508 
	C793.558838,275.953583 794.534729,274.461884 792.899170,271.000122 
z"/>
<path fill="#000000" opacity="1.000000" stroke="none" 
	d="
M844.778809,369.950500 
	C858.251953,366.590179 870.709106,368.967438 882.261597,375.247650 
	C894.758057,382.041016 905.023254,391.412720 911.251953,404.572235 
	C913.977844,410.331299 913.302124,411.725708 907.223877,413.221954 
	C891.093018,417.192810 873.987671,410.436615 866.834595,395.924866 
	C861.919067,385.952301 855.109680,378.793335 845.044434,374.464539 
	C843.861938,373.955963 842.567566,373.436401 841.938416,372.112762 
	C841.996338,370.486176 843.536133,370.674866 844.778809,369.950500 
z"/>
</svg>